# xmcd
#
# Track frame offsets:
#	150
#	3788
#	7957
#	36101
#	51735
#	69676
#	83020
#	102075
#	117127
#	133249
#	154400
#	168491
#
# Disc length: 2408 seconds
#
# Revision: 1
# Processed by: cddbd v1.5.2PL0 Copyright (c) Steve Scherf et al.
# Submitted via: EZCDAudioConverter 9.0.5.1
#
DISCID=9809660c
DTITLE=Edu Kettunen - Kaivo Aavikolla
DYEAR=2019
DGENRE=Contemporary Pop
TTITLE0=Tuulinen Maa (Prologi)
TTITLE1=Toivon Varikko (Prologi)
TTITLE2=Livornon Miehet
TTITLE3=Broken
TTITLE4=Totuus Kissankultakauppiaasta
TTITLE5=Ajan Kysymys
TTITLE6=Kaivo Aavikolla
TTITLE7=Pitkä Deja Vu
TTITLE8=Talo Joen Rantaan
TTITLE9=Toivon Varikko
TTITLE10=Malariaa Prospect Avenuella
TTITLE11=Tuulinen Maa
EXTD=
EXTT0=
EXTT1=
EXTT2=
EXTT3=
EXTT4=
EXTT5=
EXTT6=
EXTT7=
EXTT8=
EXTT9=
EXTT10=
EXTT11=
PLAYORDER=
